<?xml version="1.0" encoding="UTF-8"?>
<svg id="Layer_1" data-name="Layer 1" xmlns="http://www.w3.org/2000/svg" viewBox="0 0 20.14 20.83">
  <defs>
    <style>
      .cls-1 {
        fill: #7fd1cc;
      }

      .cls-2 {
        fill: #8381d9;
      }
    </style>
  </defs>
  <path class="cls-2" d="M3.17,13.69l15.76-.02c1.53.2,1.65,2.21.15,2.59H3.48c-1.19.15-1.19,1.83,0,1.97h15.56c1.54.34,1.45,2.4-.1,2.6H3.31c-4.32-.44-4.46-6.54-.14-7.14Z"/>
  <path class="cls-2" d="M3.76.03c1.6-.22,2.82.99,3.95,1.93,1.53-.44,3.17-.43,4.7,0,1.36-1.18,3.22-2.78,5.04-1.44,1.92,1.42,2.46,6.28,2.58,8.53.05.87.22,1.87-.78,2.26-1.1.43-1.73-.45-1.83-1.45-.08-.82-.07-1.66-.17-2.49-.18-1.58-.46-3.4-1.35-4.73-1.11.54-2.08,1.46-2.63,2.58-1.88-1.3-4.57-1.3-6.45,0-.55-1.13-1.52-1.99-2.6-2.59-.92,1.29-1.19,3.13-1.38,4.69-.11.95-.06,2.19-.24,3.07C2.32,11.88.01,11.67.03,10.02c0-1.09.15-2.27.28-3.35C.56,4.69,1.31.36,3.76.03Z"/>
  <path class="cls-1" d="M6.58,8.48c1.78-.28,2.07,2.38.42,2.58s-2.03-2.33-.42-2.58Z"/>
  <path class="cls-1" d="M13.09,8.48c1.78-.28,2.07,2.38.42,2.58s-2.03-2.33-.42-2.58Z"/>
</svg>