<?xml version="1.0" encoding="UTF-8"?>
<svg id="Layer_1" xmlns="http://www.w3.org/2000/svg" xmlns:xlink="http://www.w3.org/1999/xlink" version="1.1" viewBox="0 0 232 58">
  <!-- Generator: Adobe Illustrator 29.5.1, SVG Export Plug-In . SVG Version: 2.1.0 Build 141)  -->
  <defs>
    <style>
      .st0 {
        fill: #7fd1cc;
      }

      .st1 {
        fill: url(#linear-gradient);
      }

      .st2 {
        fill: #8381d9;
      }
    </style>
    <linearGradient id="linear-gradient" x1="55.71" y1="28.19" x2="227.36" y2="28.19" gradientTransform="translate(0 57.89) scale(1 -1)" gradientUnits="userSpaceOnUse">
      <stop offset="0" stop-color="#7fd1cc"/>
      <stop offset="1" stop-color="#9694f5"/>
    </linearGradient>
  </defs>
  <path class="st1" d="M58.32,43.21c-.84,0-1.49-.22-1.94-.67-.45-.45-.67-1.1-.67-1.94v-21.89c0-.84.22-1.49.67-1.94s1.1-.67,1.94-.67h9.24c1.91,0,3.52.27,4.84.84,1.34.57,2.35,1.37,3.06,2.42.7,1.05,1.06,2.32,1.06,3.78,0,1.65-.48,3.02-1.42,4.15-.94,1.13-2.25,1.89-3.88,2.27v-.58c1.91.29,3.38,1,4.43,2.16,1.05,1.15,1.58,2.64,1.58,4.5,0,2.4-.81,4.27-2.44,5.6-1.63,1.32-3.9,1.97-6.8,1.97h-9.67ZM60.43,27.59h6.27c1.7,0,2.95-.33,3.79-.98.84-.65,1.25-1.61,1.25-2.9s-.41-2.25-1.25-2.9c-.84-.65-2.09-.98-3.79-.98h-6.27v7.78-.02ZM60.43,39.48h6.92c1.75,0,3.02-.34,3.85-1.01.82-.69,1.24-1.7,1.24-3.06s-.41-2.4-1.24-3.07c-.82-.67-2.09-1-3.85-1h-6.92v8.15-.02ZM90.3,43.6c-1.96,0-3.64-.39-5.08-1.18-1.44-.79-2.56-1.92-3.35-3.4-.79-1.48-1.18-3.21-1.18-5.22,0-1.51.22-2.87.67-4.05s1.1-2.21,1.94-3.07,1.85-1.51,3.04-1.96,2.51-.67,3.97-.67c1.96,0,3.64.39,5.08,1.18,1.44.79,2.56,1.92,3.35,3.38s1.18,3.19,1.18,5.18c0,1.51-.22,2.87-.67,4.09-.45,1.2-1.1,2.23-1.94,3.09s-1.85,1.51-3.04,1.96-2.51.67-3.97.67ZM90.3,39.95c.94,0,1.79-.22,2.51-.69s1.27-1.15,1.67-2.06.6-2.04.6-3.4c0-2.04-.43-3.59-1.3-4.6s-2.03-1.51-3.47-1.51c-.94,0-1.79.22-2.51.67s-1.27,1.13-1.67,2.04-.6,2.04-.6,3.4c0,2.03.43,3.55,1.3,4.6s2.03,1.56,3.47,1.56v-.02ZM112.45,43.6c-1.96,0-3.64-.39-5.08-1.18-1.44-.79-2.56-1.92-3.35-3.4-.79-1.48-1.18-3.21-1.18-5.22,0-1.51.22-2.87.67-4.05s1.1-2.21,1.94-3.07,1.85-1.51,3.04-1.96c1.18-.45,2.51-.67,3.97-.67,1.96,0,3.64.39,5.08,1.18,1.44.79,2.56,1.92,3.35,3.38s1.18,3.19,1.18,5.18c0,1.51-.22,2.87-.67,4.09-.45,1.2-1.1,2.23-1.94,3.09s-1.85,1.51-3.04,1.96-2.51.67-3.97.67ZM112.45,39.95c.94,0,1.79-.22,2.51-.69s1.27-1.15,1.67-2.06.6-2.04.6-3.4c0-2.04-.43-3.59-1.3-4.6s-2.03-1.51-3.47-1.51c-.94,0-1.79.22-2.51.67s-1.27,1.13-1.67,2.04-.6,2.04-.6,3.4c0,2.03.43,3.55,1.3,4.6s2.03,1.56,3.47,1.56v-.02ZM128.41,43.52c-.77,0-1.36-.21-1.77-.64s-.62-1.03-.62-1.84v-22.85c0-.79.21-1.41.62-1.8.41-.41,1-.62,1.77-.62s1.37.21,1.79.62.64,1.01.64,1.8v14.2h.09l6.35-6.7c.52-.52.96-.91,1.34-1.18s.91-.43,1.58-.43,1.17.17,1.53.52c.34.34.52.77.52,1.25s-.22.98-.69,1.46l-6.7,7.07v-2.01l7.35,7.93c.46.48.67.98.64,1.48s-.26.91-.64,1.24c-.38.33-.88.48-1.46.48-.72,0-1.29-.14-1.72-.43s-.89-.7-1.41-1.27l-6.7-7h-.09v6.23c0,1.65-.81,2.45-2.42,2.45v.03ZM149.43,43.52c-.74,0-1.32-.21-1.72-.62s-.6-1-.6-1.77v-22.88c0-.79.21-1.41.6-1.84.39-.43.91-.64,1.56-.64.58,0,1.03.1,1.32.33.29.22.65.58,1.06,1.1l14.73,19.12h-1v-18.2c0-.74.21-1.32.6-1.73s.96-.62,1.72-.62,1.3.21,1.7.62.58,1,.58,1.73v23.09c0,.72-.17,1.29-.53,1.7s-.84.62-1.46.62-1.06-.12-1.41-.34c-.34-.22-.72-.6-1.13-1.12l-14.69-19.12h.96v18.2c0,.77-.19,1.36-.58,1.77s-.94.62-1.7.62l-.02-.02ZM184.7,43.6c-2.13,0-3.97-.39-5.49-1.18s-2.73-1.92-3.55-3.38c-.84-1.46-1.25-3.19-1.25-5.2s.41-3.66,1.22-5.12,1.92-2.61,3.35-3.43,3.04-1.25,4.88-1.25c1.34,0,2.54.22,3.61.65,1.06.45,1.97,1.06,2.73,1.89.76.82,1.34,1.82,1.73,2.99s.6,2.47.6,3.95c0,.46-.15.81-.48,1.06s-.77.36-1.37.36h-12.34v-2.76h10.82l-.62.58c0-1.18-.17-2.16-.52-2.97s-.84-1.41-1.49-1.82c-.65-.43-1.48-.64-2.44-.64-1.08,0-1.99.26-2.75.76-.76.5-1.34,1.2-1.73,2.11-.39.91-.6,1.99-.6,3.24v.27c0,2.09.5,3.67,1.48,4.7s2.44,1.56,4.36,1.56c.67,0,1.42-.09,2.25-.26.84-.17,1.61-.46,2.37-.88.53-.31,1.01-.45,1.42-.41s.74.19.98.45.39.57.45.94-.02.76-.21,1.13-.52.72-.98,1c-.89.57-1.92.98-3.09,1.25s-2.25.41-3.24.41l-.07-.02ZM203.18,43.6c-1.1,0-2.27-.12-3.5-.34-1.24-.22-2.33-.62-3.31-1.18-.41-.26-.7-.55-.86-.91-.17-.34-.22-.69-.19-1.05.03-.34.17-.65.38-.91.22-.26.5-.43.84-.5s.72,0,1.13.19c1.03.48,1.99.82,2.88,1.01.89.19,1.79.29,2.66.29,1.24,0,2.15-.21,2.75-.64s.91-.98.91-1.68c0-.58-.21-1.05-.6-1.37-.39-.33-1-.55-1.79-.7l-3.85-.74c-1.6-.31-2.8-.89-3.64-1.75-.84-.86-1.25-1.97-1.25-3.33,0-1.24.34-2.3,1.01-3.19.69-.89,1.61-1.6,2.83-2.08,1.2-.48,2.59-.74,4.15-.74,1.13,0,2.18.12,3.18.36.98.24,1.94.62,2.87,1.13.38.21.65.48.79.81.14.33.17.67.1,1.01-.07.34-.22.65-.46.93-.22.27-.52.45-.86.5s-.74,0-1.17-.21c-.79-.41-1.56-.7-2.28-.88-.74-.19-1.42-.27-2.09-.27-1.25,0-2.18.22-2.8.65-.6.43-.91,1.01-.91,1.73,0,.55.17,1,.53,1.36.36.36.91.6,1.65.72l3.85.74c1.67.31,2.94.88,3.79,1.68.86.82,1.29,1.92,1.29,3.31,0,1.87-.74,3.35-2.2,4.41s-3.42,1.6-5.85,1.6l.02.03ZM223.48,43.6c-1.67,0-3.06-.27-4.17-.84s-1.94-1.39-2.49-2.49-.81-2.44-.81-4.05v-8.19h-2.01c-.62,0-1.1-.15-1.42-.48s-.5-.77-.5-1.32c0-.58.17-1.05.5-1.34.33-.31.81-.46,1.42-.46h2.01v-3.5c0-.79.21-1.39.64-1.8s1.01-.62,1.79-.62,1.36.21,1.77.62.62,1.01.62,1.8v3.5h4.09c.62,0,1.08.15,1.42.46.33.31.5.76.5,1.34s-.17,1.01-.5,1.32c-.33.33-.81.48-1.42.48h-4.09v7.93c0,1.24.27,2.15.81,2.76s1.41.93,2.61.93c.43,0,.82-.03,1.15-.12.33-.07.64-.12.89-.15.31-.02.57.07.77.29s.31.65.31,1.32c0,.52-.09.98-.26,1.37-.17.39-.46.67-.91.82-.33.1-.77.19-1.3.29-.53.09-1.01.14-1.42.14l.02-.02Z"/>
  <path class="st2" d="M10.22,15.04v18.09c0,.09.22.6.29.72.52.82,1.7,1.05,2.47.46l4.21-3.55,3.76,3.28c.74.7,1.92.86,2.64.05.07-.09.41-.65.41-.7V15.02h14.4c.19,0,.82.67.7.96l-.07,34.09-.57.53-31.43.03c-.89,0-2.35-1.32-2.35-2.18V14.21c.36.22.74.43,1.15.57.26.09.98.27,1.2.27h3.19l-.02-.02Z"/>
  <path class="st2" d="M35.49,12.82H6.84c-.39,0-1.34-.64-1.6-1-1.32-1.73-.34-4.03,1.7-4.46h27.67c.31-.09.88.58.88.77v4.69Z"/>
  <path class="st0" d="M21.89,15.04v16.86c-.15.03-.19-.07-.27-.14-1.2-.93-2.49-2.42-3.71-3.23-.39-.27-.94-.38-1.37-.1-1.2.76-2.58,2.37-3.76,3.28-.1.07-.21.14-.33.19V15.04s9.44,0,9.44,0Z"/>
</svg>