<?xml version="1.0" encoding="UTF-8"?>
<svg id="Layer_1" xmlns="http://www.w3.org/2000/svg" xmlns:xlink="http://www.w3.org/1999/xlink" version="1.1" viewBox="0 0 151.76 43.08">
  <!-- Generator: Adobe Illustrator 29.5.1, SVG Export Plug-In . SVG Version: 2.1.0 Build 141)  -->
  <defs>
    <style>
      .st0 {
        fill: none;
      }

      .st1 {
        fill: #7fd1cc;
      }

      .st2 {
        fill: url(#linear-gradient);
      }

      .st3 {
        clip-path: url(#clippath);
      }

      .st4 {
        fill: #8381d9;
      }
    </style>
    <linearGradient id="linear-gradient" x1="43.91" y1="21.49" x2="143.9" y2="21.49" gradientTransform="translate(0 43.89) scale(1 -1)" gradientUnits="userSpaceOnUse">
      <stop offset="0" stop-color="#7fd1cc"/>
      <stop offset="1" stop-color="#9694f5"/>
    </linearGradient>
    <clipPath id="clippath">
      <rect class="st0" x="90.52" y="-154.58" width="13.3" height="11.13"/>
    </clipPath>
  </defs>
  <path class="st2" d="M45.43,30.27c-.49,0-.87-.13-1.13-.39-.26-.26-.39-.64-.39-1.13v-12.75c0-.49.13-.87.39-1.13s.64-.39,1.13-.39h5.38c1.11,0,2.05.16,2.82.49.78.33,1.37.8,1.78,1.41.41.61.62,1.35.62,2.2,0,.96-.28,1.76-.83,2.42-.55.66-1.31,1.1-2.26,1.32v-.34c1.11.17,1.97.58,2.58,1.26.61.67.92,1.54.92,2.62,0,1.4-.47,2.49-1.42,3.26-.95.77-2.27,1.15-3.96,1.15h-5.63ZM46.66,21.17h3.65c.99,0,1.72-.19,2.21-.57.49-.38.73-.94.73-1.69s-.24-1.31-.73-1.69c-.49-.38-1.22-.57-2.21-.57h-3.65v4.53h0ZM46.66,28.1h4.03c1.02,0,1.76-.2,2.24-.59.48-.4.72-.99.72-1.78s-.24-1.4-.72-1.79c-.48-.39-1.22-.58-2.24-.58h-4.03v4.75h0ZM64.06,30.5c-1.14,0-2.12-.23-2.96-.69-.84-.46-1.49-1.12-1.95-1.98-.46-.86-.69-1.87-.69-3.04,0-.88.13-1.67.39-2.36s.64-1.29,1.13-1.79,1.08-.88,1.77-1.14,1.46-.39,2.31-.39c1.14,0,2.12.23,2.96.69.84.46,1.49,1.12,1.95,1.97s.69,1.86.69,3.02c0,.88-.13,1.67-.39,2.38-.26.7-.64,1.3-1.13,1.8s-1.08.88-1.77,1.14-1.46.39-2.31.39ZM64.06,28.37c.55,0,1.04-.13,1.46-.4s.74-.67.97-1.2.35-1.19.35-1.98c0-1.19-.25-2.09-.76-2.68s-1.18-.88-2.02-.88c-.55,0-1.04.13-1.46.39s-.74.66-.97,1.19-.35,1.19-.35,1.98c0,1.18.25,2.07.76,2.68s1.18.91,2.02.91h0ZM76.96,30.5c-1.14,0-2.12-.23-2.96-.69-.84-.46-1.49-1.12-1.95-1.98-.46-.86-.69-1.87-.69-3.04,0-.88.13-1.67.39-2.36s.64-1.29,1.13-1.79,1.08-.88,1.77-1.14c.69-.26,1.46-.39,2.31-.39,1.14,0,2.12.23,2.96.69.84.46,1.49,1.12,1.95,1.97s.69,1.86.69,3.02c0,.88-.13,1.67-.39,2.38-.26.7-.64,1.3-1.13,1.8s-1.08.88-1.77,1.14-1.46.39-2.31.39ZM76.96,28.37c.55,0,1.04-.13,1.46-.4s.74-.67.97-1.2.35-1.19.35-1.98c0-1.19-.25-2.09-.76-2.68s-1.18-.88-2.02-.88c-.55,0-1.04.13-1.46.39s-.74.66-.97,1.19-.35,1.19-.35,1.98c0,1.18.25,2.07.76,2.68s1.18.91,2.02.91h0ZM86.26,30.45c-.45,0-.79-.12-1.03-.37s-.36-.6-.36-1.07v-13.31c0-.46.12-.82.36-1.05.24-.24.58-.36,1.03-.36s.8.12,1.04.36.37.59.37,1.05v8.27h.05l3.7-3.9c.3-.3.56-.53.78-.69s.53-.25.92-.25.68.1.89.3c.2.2.3.45.3.73s-.13.57-.4.85l-3.9,4.12v-1.17l4.28,4.62c.27.28.39.57.37.86s-.15.53-.37.72c-.22.19-.51.28-.85.28-.42,0-.75-.08-1-.25s-.52-.41-.82-.74l-3.9-4.08h-.05v3.63c0,.96-.47,1.43-1.41,1.43v.02ZM98.5,30.45c-.43,0-.77-.12-1-.36s-.35-.58-.35-1.03v-13.33c0-.46.12-.82.35-1.07.23-.25.53-.37.91-.37.34,0,.6.06.77.19.17.13.38.34.62.64l8.58,11.14h-.58v-10.6c0-.43.12-.77.35-1.01s.56-.36,1-.36.76.12.99.36.34.58.34,1.01v13.45c0,.42-.1.75-.31.99s-.49.36-.85.36-.62-.07-.82-.2c-.2-.13-.42-.35-.66-.65l-8.56-11.14h.56v10.6c0,.45-.11.79-.34,1.03s-.55.36-.99.36h-.01ZM119.05,30.5c-1.24,0-2.31-.23-3.2-.69s-1.59-1.12-2.07-1.97c-.49-.85-.73-1.86-.73-3.03s.24-2.13.71-2.98,1.12-1.52,1.95-2,1.77-.73,2.84-.73c.78,0,1.48.13,2.1.38.62.26,1.15.62,1.59,1.1.44.48.78,1.06,1.01,1.74s.35,1.44.35,2.3c0,.27-.09.47-.28.62s-.45.21-.8.21h-7.19v-1.61h6.3l-.36.34c0-.69-.1-1.26-.3-1.73s-.49-.82-.87-1.06c-.38-.25-.86-.37-1.42-.37-.63,0-1.16.15-1.6.44-.44.29-.78.7-1.01,1.23-.23.53-.35,1.16-.35,1.89v.16c0,1.22.29,2.14.86,2.74s1.42.91,2.54.91c.39,0,.83-.05,1.31-.15.49-.1.94-.27,1.38-.51.31-.18.59-.26.83-.24s.43.11.57.26.23.33.26.55-.01.44-.12.66-.3.42-.57.58c-.52.33-1.12.57-1.8.73s-1.31.24-1.89.24h-.04ZM129.81,30.5c-.64,0-1.32-.07-2.04-.2-.72-.13-1.36-.36-1.93-.69-.24-.15-.41-.32-.5-.53-.1-.2-.13-.4-.11-.61.02-.2.1-.38.22-.53.13-.15.29-.25.49-.29s.42,0,.66.11c.6.28,1.16.48,1.68.59.52.11,1.04.17,1.55.17.72,0,1.25-.12,1.6-.37s.53-.57.53-.98c0-.34-.12-.61-.35-.8-.23-.19-.58-.32-1.04-.41l-2.24-.43c-.93-.18-1.63-.52-2.12-1.02-.49-.5-.73-1.15-.73-1.94,0-.72.2-1.34.59-1.86.4-.52.94-.93,1.65-1.21.7-.28,1.51-.43,2.42-.43.66,0,1.27.07,1.85.21.57.14,1.13.36,1.67.66.22.12.38.28.46.47.08.19.1.39.06.59-.04.2-.13.38-.27.54-.13.16-.3.26-.5.29s-.43,0-.68-.12c-.46-.24-.91-.41-1.33-.51-.43-.11-.83-.16-1.22-.16-.73,0-1.27.13-1.63.38-.35.25-.53.59-.53,1.01,0,.32.1.58.31.79.21.21.53.35.96.42l2.24.43c.97.18,1.71.51,2.21.98.5.48.75,1.12.75,1.93,0,1.09-.43,1.95-1.28,2.57s-1.99.93-3.41.93v.02ZM141.64,30.5c-.97,0-1.78-.16-2.43-.49s-1.13-.81-1.45-1.45-.47-1.42-.47-2.36v-4.77h-1.17c-.36,0-.64-.09-.83-.28s-.29-.45-.29-.77c0-.34.1-.61.29-.78.19-.18.47-.27.83-.27h1.17v-2.04c0-.46.12-.81.37-1.05s.59-.36,1.04-.36.79.12,1.03.36.36.59.36,1.05v2.04h2.38c.36,0,.63.09.83.27.19.18.29.44.29.78s-.1.59-.29.77c-.19.19-.47.28-.83.28h-2.38v4.62c0,.72.16,1.25.47,1.61s.82.54,1.52.54c.25,0,.48-.02.67-.07.19-.04.37-.07.52-.09.18-.01.33.04.45.17s.18.38.18.77c0,.3-.05.57-.15.8-.1.23-.27.39-.53.48-.19.06-.45.11-.76.17-.31.05-.59.08-.83.08h0Z"/>
  <path class="st4" d="M17.41,57.09v10.54s.13.35.17.42c.3.48.99.61,1.44.27l2.45-2.07,2.19,1.91c.43.41,1.12.5,1.54.03.04-.05.24-.38.24-.41v-10.7h8.39c.11,0,.48.39.41.56l-.04,19.86-.33.31-18.31.02c-.52,0-1.37-.77-1.37-1.27v-19.95c.21.13.43.25.67.33.15.05.57.16.7.16h1.86-.01Z"/>
  <path class="st4" d="M32.13,55.8H15.44c-.23,0-.78-.37-.93-.58-.77-1.01-.2-2.35.99-2.6h16.12c.18-.05.51.34.51.45v2.72h0Z"/>
  <path class="st1" d="M24.21,57.09v9.82c-.09.02-.11-.04-.16-.08-.7-.54-1.45-1.41-2.16-1.88-.23-.16-.55-.22-.8-.06-.7.44-1.5,1.38-2.19,1.91-.06.04-.12.08-.19.11v-9.82s5.5,0,5.5,0Z"/>
  <g class="st3">
    <g>
      <path d="M106.27-154.58h-4.5v8.08c0,.33-.45.93-.73,1.11-1.74,1.16-3.19-1.29-4.21-2.38-.07-.08-.31-.35-.4-.33l-2.29,2.48c-.76.72-2.07.71-2.69-.18-.06-.08-.31-.59-.31-.64v-8.15h-11.21c-.3,0-.99-.22-1.29-.35-.53-.23-.97-.58-1.41-.94v19.12c0,.05-.2.35-.29.39-.44.21-.91-.03-.94-.53v-22.36c.17-2.17,1.89-3.87,4.06-4.06l27.04.03c.37.18.54.55.3.92s-.54.22-.88.28c-3.77.69-3.6,5.62,0,6.26.45.08.81-.12.98.52v22.49c-.33,4.07-3.58,7.27-7.66,7.54-5.76-.26-11.8.33-17.53,0-3.15-.18-5.52-2.65-6.13-5.66-.09-.42-.35-1.57.12-1.79,1.06-.49.97,1.05,1.11,1.65.51,2.27,2.32,4.31,4.71,4.56h17.65c3.45-.22,6.21-2.91,6.51-6.37v-21.71ZM103.81-162.08h-23.83c-1.57,0-2.83,1.83-2.76,3.31.06,1.34,1.36,2.96,2.76,2.96h23.83c-1.69-1.75-1.72-4.53,0-6.27ZM100.54-154.58h-8.18v7.94c0,.27.62.43.82.2l2.86-3.07c.49-.39.83,0,1.16.34.57.57,1.1,1.29,1.67,1.88.21.22.86.94,1.09.96.19.02.58-.1.58-.31v-7.94Z"/>
      <path d="M76.39-135.21c1.09-.33,1.15,1.7-.05,1.32-.51-.16-.44-1.17.05-1.32Z"/>
    </g>
  </g>
  <g>
    <path class="st4" d="M23.13,10.25v7.32c0,.25.56.43.78.3l1.88-1.27,1.94,1.27c.26.14.78-.08.78-.36v-7.26h1.52c1.73,0,3.65,2.08,3.67,3.8v14.69c-.04.46-.39.4-.49.58-.27.5-.27,1.86,0,2.36.07.13.29.14.4.32.21.33.06.65-.26.81l-16.52.03c-1.13-.12-2.04-1.04-2.12-2.18V13.93c.05-1.64,1.99-3.68,3.62-3.68h4.81ZM19.37,11.32h-.87s-.13.09-.21.06v16.79h1.08V11.32ZM32.1,29.25h-15.27c-.06,0-.39.14-.47.19-.77.48-.77,1.65,0,2.13.08.05.41.19.47.19h15.27c-.21-.85-.22-1.66,0-2.51Z"/>
    <path class="st1" d="M27.43,10.25v6.09c-.53-.16-1.09-.92-1.64-.9-.42.01-1.15.73-1.58.9v-6.09h3.23Z"/>
  </g>
</svg>